<?xml version="1.0" standalone="no"?>
<!DOCTYPE svg PUBLIC "-//W3C//DTD SVG 20010904//EN"
 "http://www.w3.org/TR/2001/REC-SVG-20010904/DTD/svg10.dtd">
<svg version="1.0" xmlns="http://www.w3.org/2000/svg"
 width="700.000000pt" height="700.000000pt" viewBox="0 0 700.000000 700.000000"
 preserveAspectRatio="xMidYMid meet">
<metadata>
Created by potrace 1.14, written by Peter Selinger 2001-2017
</metadata>
<g transform="translate(0.000000,700.000000) scale(0.100000,-0.100000)"
fill="#000000" stroke="none">
<path d="M1931 6984 c-112 -30 -216 -104 -280 -199 -30 -44 -59 -108 -66 -143
-2 -12 -6 -26 -9 -31 -3 -5 -7 -163 -8 -352 l-2 -344 -79 -2 c-61 -1 -86 -6
-106 -21 -52 -38 -55 -55 -54 -347 0 -244 2 -273 18 -298 28 -43 65 -57 147
-57 l74 0 0 -119 0 -119 -81 -4 c-90 -5 -125 -22 -146 -72 -9 -21 -13 -106
-13 -297 1 -233 3 -271 18 -293 29 -45 63 -60 140 -62 39 -1 73 -2 76 -3 3 -1
5 -844 6 -1873 0 -1030 3 -1895 6 -1923 13 -107 66 -211 149 -293 48 -47 159
-106 229 -122 29 -6 623 -9 1695 -7 l1650 2 57 23 c70 28 146 79 193 130 45
48 102 162 116 232 7 38 10 976 10 3120 -1 3335 3 3115 -54 3228 -33 67 -128
164 -194 199 -126 67 3 63 -1802 62 -1395 0 -1644 -2 -1690 -15z"/>
</g>
</svg>
