<svg height="512pt" viewBox="-97 0 512 512" width="512pt" xmlns="http://www.w3.org/2000/svg"><path d="m52.964844 0h229.519531c19.5 0 35.308594 15.808594 35.308594 35.308594v441.382812c0 19.5-15.808594 35.308594-35.308594 35.308594h-229.519531c-19.5 0-35.308594-15.808594-35.308594-35.308594v-441.382812c0-19.5 15.808594-35.308594 35.308594-35.308594zm0 0" fill="#586270"/><path d="m17.65625 70.621094h300.136719v370.757812h-300.136719zm0 0" fill="#bddcf3"/><path d="m317.792969 212.832031v228.546875h-300.136719v-145.476562c47.933594-58.707032 140.003906-124.292969 300.136719-83.070313zm0 0" fill="#a0c7e7"/><path d="m282.484375 264.828125c0 3-.089844 5.914063-.355469 8.828125-3.53125 45.808594-34.042968 85.09375-77.554687 99.855469-43.507813 14.757812-91.628907 2.144531-122.300781-32.0625 31.335937 28.078125 75.523437 36.757812 115.152343 22.613281 39.625-14.140625 68.335938-48.835938 74.816407-90.40625.53125-2.914062.796874-5.828125 1.058593-8.828125zm0 0" fill="#c9ced1"/><path d="m273.300781 264.828125c-.085937 1.5-.261719 2.914063-.441406 4.414063-.175781 1.5-.351563 2.824218-.617187 4.148437.042968.03125.066406.082031.066406.132813 0 .050781-.023438.101562-.066406.132812-.085938.882812-.265626 1.765625-.441407 2.648438-.265625 1.5-.527343 2.910156-.882812 4.414062-.179688 1.164062-.445313 2.316406-.792969 3.441406-.355469 1.414063-.707031 2.738282-1.058594 4.058594-1.929687 6.679688-4.503906 13.152344-7.679687 19.335938-.707031 1.5-1.503907 3-2.386719 4.5-3.253906 5.816406-7.003906 11.339843-11.210938 16.507812-1.765624 2.117188-3.617187 4.238281-5.558593 6.269531-4.09375 4.339844-8.523438 8.351563-13.242188 12.003907-1.359375 1.101562-2.773437 2.132812-4.238281 3.089843-2.839844 2.035157-5.789062 3.921875-8.828125 5.648438-1.5.882812-3.089844 1.765625-4.679687 2.5625-1.585938.792969-3.175782 1.585937-4.765626 2.292969-5.746093 2.660156-11.710937 4.816406-17.832031 6.445312-1.234375.351562-2.472656.617188-3.707031.882812-3.089844.707032-6.179688 1.324219-9.355469 1.765626-1.855469.265624-3.621093.527343-5.472656.707031-3.710937.351562-7.417969.527343-11.210937.527343-28.285157.035157-55.582032-10.40625-76.625-29.308593-16.875-18.777344-27.058594-42.617188-28.953126-67.792969-.265624-2.914062-.355468-5.828125-.355468-8.828125h79.449218c-.027343 2.980469.359376 5.953125 1.148438 8.828125 1.023438 4.054688 2.789062 7.886719 5.207031 11.296875 7.855469 11.34375 21.605469 17.058594 35.1875 14.628906 13.582031-2.429687 24.496094-12.5625 27.929688-25.925781.789062-2.875 1.175781-5.847656 1.148437-8.828125zm0 0" fill="#f0f3f4"/><path d="m8.828125 79.449219h8.828125c4.875 0 8.828125 3.953125 8.828125 8.828125v35.308594c0 4.875-3.953125 8.828124-8.828125 8.828124h-8.828125c-4.875 0-8.828125-3.953124-8.828125-8.828124v-35.308594c0-4.875 3.953125-8.828125 8.828125-8.828125zm0 0" fill="#586270"/><path d="m8.828125 150.070312h8.828125c4.875 0 8.828125 3.949219 8.828125 8.828126v35.308593c0 4.875-3.953125 8.828125-8.828125 8.828125h-8.828125c-4.875 0-8.828125-3.953125-8.828125-8.828125v-35.308593c0-4.878907 3.953125-8.828126 8.828125-8.828126zm0 0" fill="#586270"/><path d="m282.484375 264.828125h-79.449219c.027344-2.980469-.359375-5.953125-1.148437-8.828125-4.0625-15.539062-18.101563-26.382812-34.164063-26.382812s-30.097656 10.84375-34.160156 26.382812c-.789062 2.875-1.175781 5.847656-1.148438 8.828125h-79.449218c-.03125-2.949219.117187-5.898437.441406-8.828125 4.582031-59.769531 54.417969-105.929688 114.363281-105.929688 59.945313 0 109.777344 46.160157 114.359375 105.929688.265625 2.914062.355469 5.828125.355469 8.828125zm0 0" fill="#d8625e"/><path d="m176.550781 35.308594c0 4.878906-3.953125 8.828125-8.828125 8.828125s-8.824218-3.949219-8.824218-8.828125c0-4.875 3.949218-8.824219 8.824218-8.824219s8.828125 3.949219 8.828125 8.824219zm0 0" fill="#3a3e48"/><path d="m203.035156 476.691406c0 19.5-15.808594 35.308594-35.3125 35.308594-19.5 0-35.308594-15.808594-35.308594-35.308594 0-19.503906 15.808594-35.3125 35.308594-35.3125 19.503906 0 35.3125 15.808594 35.3125 35.3125zm0 0" fill="#3a3e48"/><path d="m211.863281 264.828125c0 24.375-19.761719 44.136719-44.140625 44.136719-24.375 0-44.136718-19.761719-44.136718-44.136719 0-24.378906 19.761718-44.136719 44.136718-44.136719 24.378906 0 44.140625 19.757813 44.140625 44.136719zm0 0" fill="#586270"/><path d="m194.207031 264.828125c0 14.625-11.855469 26.480469-26.484375 26.480469-14.625 0-26.480468-11.855469-26.480468-26.480469s11.855468-26.484375 26.480468-26.484375c14.628906 0 26.484375 11.859375 26.484375 26.484375zm0 0" fill="#f0f3f4"/><g fill="#f6ab27"><path d="m256 141.242188c-3.058594-.003907-5.898438-1.585938-7.503906-4.1875-1.609375-2.601563-1.753906-5.851563-.386719-8.585938l8.828125-17.65625c2.175781-4.363281 7.480469-6.132812 11.84375-3.953125s6.136719 7.480469 3.957031 11.84375l-8.828125 17.65625c-1.496094 2.996094-4.5625 4.886719-7.910156 4.882813zm0 0"/><path d="m273.65625 167.722656c-3.570312 0-6.789062-2.148437-8.15625-5.449218-1.363281-3.296876-.609375-7.09375 1.914062-9.617188l8.828126-8.828125c3.464843-3.34375 8.96875-3.296875 12.375.105469 3.402343 3.40625 3.453124 8.914062.105468 12.375l-8.828125 8.828125c-1.652343 1.65625-3.898437 2.585937-6.238281 2.585937zm0 0"/><path d="m79.449219 141.242188c-3.363281.015624-6.441407-1.875-7.945313-4.882813l-8.828125-17.65625c-2.179687-4.363281-.410156-9.664063 3.953125-11.84375 4.363282-2.179687 9.667969-.410156 11.847656 3.953125l8.828126 17.65625c1.363281 2.730469 1.222656 5.96875-.378907 8.570312-1.597656 2.597657-4.425781 4.1875-7.476562 4.203126zm0 0"/><path d="m61.792969 167.722656c-2.339844 0-4.585938-.929687-6.242188-2.585937l-8.828125-8.828125c-3.34375-3.460938-3.296875-8.96875.109375-12.375 3.40625-3.402344 8.910157-3.449219 12.375-.105469l8.828125 8.828125c2.523438 2.523438 3.277344 6.320312 1.910156 9.617188-1.363281 3.300781-4.582031 5.449218-8.152343 5.449218zm0 0"/></g><path d="m137.523438 176.550781c-18.796876 15.765625-31.457032 37.640625-35.757813 61.792969h-31.144531c6.734375-25.546875 22.859375-47.613281 45.152344-61.792969zm0 0" fill="#fe9189"/><path d="m141.242188 256v17.65625h-87.921876c-.265624-2.914062-.355468-5.828125-.355468-8.828125-.03125-2.949219.117187-5.898437.441406-8.828125zm0 0" fill="#586270"/><path d="m282.484375 264.828125c0 3-.089844 5.914063-.355469 8.828125h-87.921875v-17.65625h87.921875c.265625 2.914062.355469 5.828125.355469 8.828125zm0 0" fill="#586270"/></svg>